<svg aria-hidden="true" style="position: absolute; width: 0; height: 0; overflow: hidden;" version="1.1" xmlns="http://www.w3.org/2000/svg" xmlns:xlink="http://www.w3.org/1999/xlink">
    <defs>
        <symbol id="icon-logo" viewBox="0 0 42 17">
            <path d="M0 11V0H12.8903C14.6428 0 16.3497 0.558477 17.7633 1.59437C18.6084 2.21371 19.2833 3.0366 19.7252 3.98661L21.2165 7.19231C21.7922 5.78595 22.5143 4.44406 23.3707 3.18876L23.4446 3.08053C23.6905 2.72004 23.9717 2.38484 24.2838 2.07984L24.919 1.4592C25.333 1.05464 25.8242 0.737558 26.3634 0.526835L26.4183 0.505373C27.2728 0.171398 28.1822 0 29.0996 0H42V11H0Z"  fill="#F9F9F9" fill-opacity="1.000000" fill-rule="evenodd"/>
	        <rect y="13.000000" width="42.000000" height="4.000000" fill="#F9F9F9" fill-opacity="1.000000"/>
        </symbol>
        <symbol id='icon-hide-show' viewBox="0 0 18 18">        
            <path d="M9 3C14.25 3 17.25 9 17.25 9C17.25 9 14.25 15 9 15C3.75 15 0.75 9 0.75 9C0.75 9 3.75 3 9 3Z" stroke-opacity="1.000000" stroke-width="1.300000" stroke-linejoin="round"/>
            <path d="M9 11.25C7.75 11.25 6.75 10.24 6.75 9C6.75 7.75 7.75 6.75 9 6.75C10.24 6.75 11.25 7.75 11.25 9C11.25 10.24 10.24 11.25 9 11.25Z" stroke-opacity="1.000000" stroke-width="1.300000" stroke-linejoin="round"/>
        </symbol>
        <symbol id="icon-close" viewBox="0 0 32 32">
            <path fill="none" stroke-linejoin="round" stroke-linecap="round" stroke-miterlimit="4" stroke-width="2.6667" d="M24 8l-16 16"></path>
            <path fill="none" stroke-linejoin="round" stroke-linecap="round" stroke-miterlimit="4" stroke-width="2.6667" d="M8 8l16 16"></path>
        </symbol>
        <symbol id="icon-menu" viewBox="0 0 28 28">
            <path id="Icon" d="M3.5 14L24.5 14M3.5 7L24.5 7M10.5 21L24.5 21" stroke="#F9F9F9" stroke-opacity="1.000000" stroke-width="2.000000" stroke-linejoin="round"/>
        </symbol>
        <symbol id="icon-close_burger" viewBox="0 0 28 28">                
            <path d="M21 7L7 21" stroke="#F9F9F9" stroke-opacity="1.000000" stroke-width="2.000000" stroke-linejoin="round" stroke-linecap="round"/>
            <path d="M7 7L21 21" stroke="#F9F9F9" stroke-opacity="1.000000" stroke-width="2.000000" stroke-linejoin="round" stroke-linecap="round"/>
        </symbol>
        <symbol id="icon-nav_left" viewBox="0 0 16 16">
		    <path d="M10 12L6 8L10 4" stroke-width="1.500000" stroke-linejoin="round" stroke-linecap="round"/>
        </symbol>
        <symbol id="icon-nav_rigth" viewBox="0 0 16 16">        
            <path d="M6 4L10 8L6 12" stroke-width="1.500000" stroke-linejoin="round" stroke-linecap="round"/>
        </symbol>
        <symbol id="icon-library" viewBox="0 0 24 24">
            <path d="M14 17L19 12L14 7" stroke="#F9F9F9" stroke-opacity="1.000000" stroke-width="2.000000" stroke-linejoin="round" stroke-linecap="round"/>
            <path d="M19 12L5 12" stroke="#F9F9F9" stroke-opacity="1.000000" stroke-width="2.000000" stroke-linejoin="round" stroke-linecap="round"/>
        </symbol>
    </defs>
</svg>