<svg aria-hidden="true" style="position: absolute; width: 0; height: 0; overflow: hidden;" version="1.1" xmlns="http://www.w3.org/2000/svg" xmlns:xlink="http://www.w3.org/1999/xlink">
    <defs>
        <symbol id="icon-logo" viewBox="0 0 42 17">
            <path d="M0 11V0H12.8903C14.6428 0 16.3497 0.558477 17.7633 1.59437C18.6084 2.21371 19.2833 3.0366 19.7252 3.98661L21.2165 7.19231C21.7922 5.78595 22.5143 4.44406 23.3707 3.18876L23.4446 3.08053C23.6905 2.72004 23.9717 2.38484 24.2838 2.07984L24.919 1.4592C25.333 1.05464 25.8242 0.737558 26.3634 0.526835L26.4183 0.505373C27.2728 0.171398 28.1822 0 29.0996 0H42V11H0Z"  fill="#F9F9F9" fill-opacity="1.000000" fill-rule="evenodd"/>
	        <rect y="13.000000" width="42.000000" height="4.000000" fill="#F9F9F9" fill-opacity="1.000000"/>
        </symbol>
        <symbol id='icon-hide' viewBox="0 0 18 18">        
            <path d="M9 3C14.25 3 17.25 9 17.25 9C17.25 9 14.25 15 9 15C3.75 15 0.75 9 0.75 9C0.75 9 3.75 3 9 3Z" stroke-opacity="1.000000" stroke-width="1.300000" stroke-linejoin="round"/>
            <path d="M9 11.25C7.75 11.25 6.75 10.24 6.75 9C6.75 7.75 7.75 6.75 9 6.75C10.24 6.75 11.25 7.75 11.25 9C11.25 10.24 10.24 11.25 9 11.25Z" stroke-opacity="1.000000" stroke-width="1.300000" stroke-linejoin="round"/>
        </symbol>
        <symbol id='icon-show' viewBox="0 0 18 18">
            <path d="M13.45 13.45C12.17 14.43 10.61 14.97 9 15C3.75 15 0.75 9 0.75 9C1.68 7.26 2.97 5.74 4.54 4.54M7.42 3.18C7.94 3.05 8.46 2.99 9 3C14.25 3 17.25 9 17.25 9C16.79 9.85 16.25 10.65 15.62 11.39M10.59 10.59C10.38 10.81 10.13 10.98 9.85 11.11C9.58 11.23 9.28 11.3 8.98 11.3C8.68 11.31 8.38 11.25 8.1 11.14C7.82 11.02 7.56 10.86 7.35 10.64C7.13 10.43 6.97 10.17 6.85 9.89C6.74 9.61 6.68 9.31 6.69 9.01C6.69 8.71 6.76 8.41 6.88 8.14C7.01 7.86 7.18 7.61 7.4 7.41" stroke="#F9F9F9" stroke-opacity="1.000000" stroke-width="1.300000" stroke-linejoin="round"/>
            <path d="M0.75 0.75L17.25 17.25" stroke="#F9F9F9" stroke-opacity="1.000000" stroke-width="1.300000" stroke-linejoin="round" stroke-linecap="round"/>
        </symbol>
        <symbol id="icon-close" viewBox="0 0 32 32">
            <path fill="none" stroke-linejoin="round" stroke-linecap="round" stroke-miterlimit="4" stroke-width="2.6667" d="M24 8l-16 16"></path>
            <path fill="none" stroke-linejoin="round" stroke-linecap="round" stroke-miterlimit="4" stroke-width="2.6667" d="M8 8l16 16"></path>
        </symbol>
        <symbol id="icon-menu" viewBox="0 0 28 28">
            <path id="Icon" d="M3.5 14L24.5 14M3.5 7L24.5 7M10.5 21L24.5 21" stroke="#F9F9F9" stroke-opacity="1.000000" stroke-width="2.000000" stroke-linejoin="round"/>
        </symbol>
        <symbol id="icon-close_burger" viewBox="0 0 28 28">                
            <path d="M21 7L7 21" stroke="#F9F9F9" stroke-opacity="1.000000" stroke-width="2.000000" stroke-linejoin="round" stroke-linecap="round"/>
            <path d="M7 7L21 21" stroke="#F9F9F9" stroke-opacity="1.000000" stroke-width="2.000000" stroke-linejoin="round" stroke-linecap="round"/>
        </symbol>
        <symbol id="icon-nav_left" viewBox="0 0 16 16">
		    <path d="M10 12L6 8L10 4" stroke-width="1.500000" stroke-linejoin="round" stroke-linecap="round"/>
        </symbol>
        <symbol id="icon-nav_rigth" viewBox="0 0 16 16">        
            <path d="M6 4L10 8L6 12" stroke-width="1.500000" stroke-linejoin="round" stroke-linecap="round"/>
        </symbol>
        <symbol id="icon-library" viewBox="0 0 24 24">
            <path d="M14 17L19 12L14 7" stroke="#F9F9F9" stroke-opacity="1.000000" stroke-width="2.000000" stroke-linejoin="round" stroke-linecap="round"/>
            <path d="M19 12L5 12" stroke="#F9F9F9" stroke-opacity="1.000000" stroke-width="2.000000" stroke-linejoin="round" stroke-linecap="round"/>
        </symbol>
        <symbol id="icon-error" viewBox="0 0 20 20">       
	        <path d="M10 18.12C12.15 18.12 14.22 17.26 15.74 15.74C17.26 14.22 18.12 12.15 18.12 10C18.12 7.84 17.26 5.77 15.74 4.25C14.22 2.73 12.15 1.87 10 1.87C7.84 1.87 5.77 2.73 4.25 4.25C2.73 5.77 1.87 7.84 1.87 10C1.87 12.15 2.73 14.22 4.25 15.74C5.77 17.26 7.84 18.12 10 18.12ZM10 20C12.65 20 15.19 18.94 17.07 17.07C18.94 15.19 20 12.65 20 10C20 7.34 18.94 4.8 17.07 2.92C15.19 1.05 12.65 0 10 0C7.34 0 4.8 1.05 2.92 2.92C1.05 4.8 0 7.34 0 10C0 12.65 1.05 15.19 2.92 17.07C4.8 18.94 7.34 20 10 20ZM11.25 13.75C11.25 14.08 11.11 14.39 10.88 14.63C10.64 14.86 10.33 15 10 15C9.66 15 9.35 14.86 9.11 14.63C8.88 14.39 8.75 14.08 8.75 13.75C8.75 13.41 8.88 13.1 9.11 12.86C9.35 12.63 9.66 12.5 10 12.5C10.33 12.5 10.64 12.63 10.88 12.86C11.11 13.1 11.25 13.41 11.25 13.75ZM10.93 5.93C10.93 5.68 10.83 5.45 10.66 5.27C10.48 5.09 10.24 5 10 5C9.75 5 9.51 5.09 9.33 5.27C9.16 5.45 9.06 5.68 9.06 5.93L9.06 10.31C9.06 10.56 9.16 10.79 9.33 10.97C9.51 11.15 9.75 11.25 10 11.25C10.24 11.25 10.48 11.15 10.66 10.97C10.83 10.79 10.93 10.56 10.93 10.31L10.93 5.93Z" fill="#E90516" fill-opacity="1.000000" fill-rule="evenodd"/>
        </symbol>
        <symbol id="icon-success" viewBox="0 0 20 20">        
	        <path d="M0 10C0 4.47 4.47 0 10 0C15.52 0 20 4.47 20 10C20 15.52 15.52 20 10 20C4.47 20 0 15.52 0 10ZM10 18.18C8.92 18.18 7.86 17.97 6.86 17.55C5.87 17.14 4.97 16.54 4.21 15.78C3.45 15.02 2.85 14.12 2.44 13.13C2.02 12.13 1.81 11.07 1.81 10C1.81 8.92 2.02 7.86 2.44 6.86C2.85 5.87 3.45 4.97 4.21 4.21C4.97 3.45 5.87 2.85 6.86 2.44C7.86 2.02 8.92 1.81 10 1.81C12.16 1.81 14.25 2.68 15.78 4.21C17.31 5.74 18.18 7.83 18.18 10C18.18 12.17 17.31 14.25 15.78 15.78C14.25 17.31 12.16 18.18 10 18.18Z" fill="#30B94D" fill-opacity="1.000000" fill-rule="evenodd"/>
        </symbol>
        <symbol id="icon-hourglass" viewBox="0 0 20 20">
            <path d="M15 18.33L15 16.04C15 15.35 15 15 14.91 14.68C14.83 14.4 14.71 14.13 14.54 13.89C14.35 13.62 14.08 13.4 13.56 12.96L10 10L6.43 7.03C5.91 6.59 5.64 6.37 5.45 6.1C5.28 5.86 5.16 5.59 5.08 5.31C5 4.99 5 4.64 5 3.95L5 1.66M15 1.66L15 3.95C15 4.64 15 4.99 14.91 5.31C14.83 5.59 14.71 5.86 14.54 6.1C14.35 6.37 14.08 6.59 13.56 7.03L10 10M5 18.33L5 16.04C5 15.35 5 15 5.08 14.68C5.16 14.4 5.28 14.13 5.45 13.89C5.64 13.62 5.91 13.4 6.43 12.96L10 10" stroke="#F9F9F9" stroke-opacity="1.000000" stroke-width="2.000000" stroke-linejoin="round"/>
            <path d="M3.33 1.66L16.66 1.66M3.33 18.33L16.66 18.33" stroke="#F9F9F9" stroke-opacity="1.000000" stroke-width="2.000000" stroke-linejoin="round"/>
        </symbol>
        <symbol id="icon-piechart" viewBox="0 0 20 20">
            <g opacity="0.800000">
                <path d="M13.87 15.37C13.14 16.46 12.1 17.32 10.88 17.82C9.66 18.33 8.32 18.46 7.03 18.2C5.73 17.94 4.55 17.31 3.61 16.38C2.68 15.44 2.05 14.26 1.79 12.96C1.53 11.67 1.66 10.33 2.17 9.11C2.67 7.89 3.53 6.85 4.62 6.12C5.54 5.51 6.58 5.14 7.66 5.03C7.87 5.01 7.98 5 8.07 5.04C8.16 5.07 8.23 5.14 8.28 5.22C8.33 5.32 8.33 5.43 8.33 5.66L8.33 11C8.33 11.23 8.33 11.35 8.37 11.43C8.41 11.51 8.48 11.58 8.56 11.62C8.64 11.66 8.76 11.66 8.99 11.66L14.33 11.66C14.56 11.66 14.67 11.66 14.77 11.71C14.85 11.76 14.92 11.83 14.95 11.92C14.99 12.01 14.98 12.12 14.96 12.33C14.85 13.41 14.48 14.45 13.87 15.37Z" stroke="#F9F9F9" stroke-opacity="1.000000" stroke-width="2.000000" stroke-linejoin="round"/>
            </g>
            <path d="M16.38 3.61C17.47 4.71 18.14 6.14 18.29 7.66C18.32 7.87 18.33 7.98 18.28 8.07C18.25 8.16 18.18 8.23 18.1 8.28C18.01 8.33 17.89 8.33 17.66 8.33L12.33 8.33C12.09 8.33 11.98 8.33 11.89 8.28C11.81 8.24 11.75 8.18 11.71 8.1C11.66 8.01 11.66 7.9 11.66 7.66L11.66 2.33C11.66 2.1 11.66 1.98 11.71 1.89C11.76 1.81 11.83 1.74 11.92 1.71C12.01 1.66 12.12 1.67 12.33 1.69C13.85 1.85 15.28 2.52 16.38 3.61Z" stroke="#F9F9F9" stroke-opacity="1.000000" stroke-width="2.000000" stroke-linejoin="round"/>
        </symbol>
        <symbol id="icon-attachment" viewBox="0 0 18 18">
		    <path d="M15.8 10.63L7.36 2.19C5.96 0.73 3.65 0.73 2.19 2.13C0.73 3.54 0.73 5.9 2.19 7.31L2.25 7.36L3.82 9L4.61 8.21L2.98 6.58C2.02 5.62 2.02 3.99 2.98 3.03C3.93 2.08 5.56 2.02 6.52 2.98L6.58 3.03L14.96 11.41C15.97 12.37 15.97 14 15.01 14.96C14.06 15.97 12.43 15.97 11.47 15.01L11.41 14.96L7.25 10.8C6.69 10.23 6.75 9.33 7.25 8.83C7.52 8.58 7.87 8.45 8.24 8.45C8.6 8.45 8.95 8.58 9.22 8.83L11.53 11.13L12.31 10.35L9.95 7.98C9.71 7.76 9.43 7.58 9.12 7.46C8.81 7.35 8.49 7.29 8.16 7.3C7.83 7.31 7.5 7.39 7.2 7.52C6.9 7.66 6.63 7.85 6.41 8.09C5.51 9.05 5.51 10.57 6.41 11.58L10.63 15.8C12.03 17.26 14.34 17.26 15.8 15.86C17.26 14.45 17.26 12.09 15.8 10.63Z" fill="#F9F9F9" fill-opacity="1.000000" fill-rule="nonzero"/>
        </symbol>
    </defs>
</svg>